<svg width="248" height="248" viewBox="0 0 248 248" fill="none" xmlns="http://www.w3.org/2000/svg">
<path d="M103.812 129.856V144.299C114.654 144.302 125.067 140.062 132.822 132.486C136.618 128.777 139.638 124.35 141.704 119.462C143.771 114.574 144.843 109.323 144.858 104.016H130.145C130.134 107.42 129.446 110.788 128.12 113.924C126.793 117.059 124.856 119.899 122.421 122.278C117.446 127.139 110.767 129.86 103.812 129.859V129.856Z" fill="#3BE081"/>
<path d="M103.809 169.636C96.8766 169.636 90.2307 166.933 85.3304 162.125C82.9116 159.764 80.9884 156.943 79.6735 153.828C78.3587 150.714 77.6786 147.368 77.6732 143.987C77.6732 137.185 80.427 130.663 85.3304 125.852C90.2689 121.028 96.9017 118.331 103.806 118.341V104.003C98.4571 103.997 93.153 105.021 88.2082 107.024C83.2746 109.019 78.7786 111.959 74.9735 115.68C71.1947 119.373 68.1858 123.778 66.1207 128.641C64.0688 133.482 63.0077 138.685 63 143.943C62.9924 149.201 64.0383 154.407 66.0761 159.254C68.1265 164.124 71.1225 168.539 74.8908 172.244C78.6853 175.974 83.1726 178.926 88.1001 180.935C93.0417 182.951 98.3394 183.994 103.691 184H103.809V169.636Z" fill="#0037FF"/>
<path d="M103.812 169.636V183.971C114.62 183.971 124.987 179.758 132.628 172.257C136.399 168.573 139.398 164.174 141.447 159.317C143.497 154.46 144.557 149.243 144.565 143.971H129.944C129.937 147.352 129.256 150.697 127.941 153.811C126.627 156.926 124.704 159.747 122.287 162.11C117.349 166.937 110.717 169.638 103.812 169.636Z" fill="#00CCFF"/>
<path d="M103.812 89.6618V103.997C114.62 103.997 124.987 99.7834 132.628 92.282C136.399 88.5989 139.397 84.2003 141.447 79.344C143.497 74.4877 144.557 69.2712 144.565 64H129.944C129.937 67.3804 129.256 70.7256 127.941 73.8399C126.627 76.9542 124.704 79.7752 122.287 82.1382C117.349 86.9653 110.717 89.667 103.812 89.665V89.6618Z" fill="#861DFF"/>
<path d="M144.804 89.6618V103.997C155.613 103.997 165.979 99.7834 173.62 92.282C177.392 88.599 180.39 84.2004 182.439 79.3441C184.489 74.4878 185.549 69.2712 185.558 64H170.943C170.935 67.3807 170.254 70.7259 168.939 73.8402C167.623 76.9546 165.701 79.7755 163.283 82.1382C158.344 86.966 151.711 89.6679 144.804 89.665V89.6618Z" fill="#FF8110"/>
</svg>
