<svg width="248" height="248" viewBox="0 0 248 248" fill="none" xmlns="http://www.w3.org/2000/svg">
<path fill-rule="evenodd" clip-rule="evenodd" d="M64 124C64 90.8508 90.8508 64 124 64C157.149 64 184 90.8508 184 124C184 157.149 157.149 184 124 184C90.8508 184 64 157.26 64 124ZM122.674 144.552C116.818 144.552 112.177 144.11 108.862 143.337C105.215 142.453 102.674 140.354 101.238 137.26C99.8011 134.166 99.1381 129.304 99.2486 122.785C99.2486 119.249 99.4696 115.934 99.9116 112.619C100.354 109.304 100.685 106.652 101.127 104.442L101.569 102.343C101.569 102.232 101.569 102.232 101.569 102.122C101.569 101.569 101.127 101.017 100.575 100.906L92.8398 99.6906C92.7293 99.6906 92.7293 99.6906 92.6188 99.6906C92.0663 99.6906 91.5138 100.133 91.4033 100.575C91.2928 101.017 91.1823 101.459 90.9613 102.564C90.5193 104.884 90.0773 107.094 89.6354 110.298C89.1934 113.503 88.8619 117.039 88.7514 120.906C88.7514 120.906 88.5304 121.79 88.7514 128.309C88.9724 134.829 90.0773 140.133 92.1768 144C94.2762 147.867 97.7017 150.74 102.674 152.508C107.646 154.276 114.497 155.05 123.337 155.05H124.442C133.282 155.05 140.133 154.276 145.105 152.508C150.077 150.74 153.613 147.978 155.602 144C157.702 140.022 158.807 134.829 159.028 128.309C159.249 121.79 159.028 120.906 159.028 120.906C158.917 117.039 158.586 113.503 158.144 110.298C157.702 107.094 157.26 104.884 156.818 102.564C156.597 101.348 156.486 101.017 156.376 100.575C156.265 100.022 155.713 99.6906 155.16 99.6906C155.05 99.6906 155.05 99.6906 154.939 99.6906L147.204 100.906C146.652 101.017 146.21 101.459 146.21 102.122C146.21 102.232 146.21 102.232 146.21 102.343L146.652 104.442C147.094 106.541 147.425 109.304 147.867 112.619C148.309 115.934 148.42 119.249 148.53 122.785C148.641 129.304 147.978 134.055 146.541 137.26C145.105 140.354 142.674 142.453 138.917 143.337C135.602 144.221 130.961 144.552 125.105 144.552H122.674Z" fill="#3544B1"/>
</svg>
