<svg width="248" height="248" viewBox="0 0 248 248" fill="none" xmlns="http://www.w3.org/2000/svg">
<path d="M124 184C157.137 184 184 157.137 184 124C184 90.8629 157.137 64 124 64C90.8629 64 64 90.8629 64 124C64 157.137 90.8629 184 124 184Z" fill="#F05A22"/>
<path d="M124 116C125.864 115.987 127.674 116.62 129.123 117.792C130.572 118.965 131.57 120.603 131.947 122.428C132.323 124.254 132.055 126.153 131.188 127.803C130.321 129.453 128.909 130.751 127.192 131.477C125.475 132.202 123.56 132.31 121.773 131.781C119.986 131.253 118.437 130.121 117.39 128.579C116.344 127.037 115.865 125.179 116.034 123.323C116.204 121.467 117.011 119.727 118.32 118.4C119.061 117.644 119.944 117.043 120.919 116.631C121.894 116.219 122.941 116.004 124 116Z" fill="white"/>
<path d="M144.656 118.48H161.936C162.09 118.482 162.24 118.535 162.36 118.632C162.48 118.728 162.56 118.865 162.584 119.016C163.008 121.192 164.112 129.52 157.112 129.52H144.8C138 129.52 137.848 118.48 144.72 118.48" fill="white"/>
<path d="M103.344 129.52H86.064C85.9096 129.518 85.7602 129.465 85.64 129.368C85.5253 129.268 85.4467 129.133 85.416 128.984C84.992 126.808 83.88 118.48 90.888 118.48H103.264C110.064 118.48 110.216 129.52 103.344 129.52Z" fill="white"/>
<path d="M134.704 105.488L146.928 93.264C147.038 93.1605 147.178 93.0959 147.328 93.08C147.481 93.0643 147.634 93.1041 147.76 93.192C149.616 94.448 156.272 99.528 151.312 104.488L142.568 113.232C137.768 118.032 129.848 110.328 134.704 105.488Z" fill="white"/>
<path d="M113.296 142.512L101.072 154.728C100.966 154.838 100.824 154.907 100.672 154.92C100.519 154.936 100.366 154.896 100.24 154.808C98.3839 153.544 91.7279 148.464 96.6879 143.512L105.432 134.76C110.248 129.952 118.152 137.664 113.296 142.512Z" fill="white"/>
<path d="M118.48 103.344V86.0561C118.482 85.9041 118.535 85.7573 118.632 85.6401C118.728 85.5202 118.865 85.4404 119.016 85.4161C121.192 85.0001 129.52 83.8801 129.52 90.8961V103.2C129.52 110 118.48 110.152 118.48 103.28" fill="white"/>
<path d="M129.52 144.656V161.944C129.518 162.096 129.465 162.243 129.368 162.36C129.268 162.475 129.133 162.553 128.984 162.584C126.808 163 118.48 164.112 118.48 157.104V144.728C118.48 137.936 129.52 137.776 129.52 144.656Z" fill="white"/>
<path d="M105.496 113.296L93.272 101.072C93.1629 100.965 93.095 100.824 93.08 100.672C93.0643 100.519 93.1041 100.366 93.192 100.24C94.456 98.3839 99.536 91.7359 104.488 96.6879L113.24 105.44C118.04 110.24 110.336 118.16 105.496 113.296Z" fill="white"/>
<path d="M142.504 134.704L154.728 146.92C154.837 147.03 154.905 147.174 154.92 147.328C154.936 147.481 154.896 147.634 154.808 147.76C153.544 149.616 148.464 156.264 143.504 151.312L134.76 142.56C129.96 137.76 137.664 129.84 142.504 134.704Z" fill="white"/>
</svg>
